PathFileType	4	(X/Y/Z)	OpenSim_Sub02_EMGStiffKnee_Gyro.trc
DataRate	CameraRate	NumFrames	NumMarkers	Units	OrigDataRate	OrigDataStartFrame	OrigNumFrames
100	100	27	8	m	100	1	7890
Frame#	Time	torso_imu_offset_imu	pelvis_imu_offset_imu	tibia_r_imu_offset_imu	femur_r_imu_offset_imu	tibia_l_imu_offset_imu	femur_l_imu_offset_imu	toes_r_imu_offset_imu	toes_l_imu_offset_imu
				X1	Y1	Z1	X2	Y2	Z2	X3	Y3	Z3	X4	Y4	Z4	X5	Y5	Z5	X6	Y6	Z6	X7	Y7	Z7	X8		Y8	Z8	

1	0	0.00030007	-0.00702818	0.00288449	0.00105908	-0.00407575	0.00104535	0.01795383	-0.00599747	-0.01580545	0.00256687	0.01045431	-0.00549766	0.00473522	0.01037368	0.00493377	-0.00331591	0.00028129	0.00624609	0.00192845	0.00629778	-0.00228599	-0.00277922	0.01333058	-0.00151948
2	0.01000000	0.00384637	-0.00920718	0.01855102	0.00005659	-0.00350480	-0.00164082	0.00849468	0.00231125	-0.01768803	-0.00180328	0.00805080	0.00606799	0.00534183	0.00995327	0.00370482	0.00360263	-0.00624951	0.00800286	0.00145875	0.00614149	-0.00228279	-0.00220485	0.01197546	0.00013433
3	0.02000000	0.00177877	-0.00776869	0.02100773	0.00095911	0.00005840	-0.00019677	-0.00045496	0.00157834	-0.01304361	-0.00312486	0.00919005	0.00845359	0.00426999	0.00690111	0.00472992	0.00964035	-0.00428073	0.00396508	0.00396855	0.00617852	-0.00169393	-0.00502677	0.01360761	0.00066334
4	0.03000000	0.00291214	-0.01446479	0.01725642	0.00469095	-0.00145957	-0.00139359	-0.00181100	-0.00013203	-0.01148878	-0.00319268	0.01321036	0.00592373	0.00755107	0.00893909	0.00709477	0.01304823	-0.00362809	-0.00116001	0.00352825	0.00629431	-0.00068469	-0.00757481	0.01283887	-0.00042341
5	0.04000000	-0.00074171	-0.01263207	0.00901198	0.00753514	-0.00103850	-0.00048305	0.00636345	0.00445502	-0.01378930	0.00048063	0.01062173	0.00778554	0.01013770	0.00894556	0.00825634	0.01573716	-0.00589295	-0.00655802	0.00091030	0.00695145	-0.00012581	-0.00268098	0.01512238	0.00255442
6	0.05000000	-0.00131297	-0.01364850	0.00110710	0.00584028	-0.00289007	-0.00091825	0.01705085	0.00735317	-0.01957614	0.00341772	0.00836209	0.01139656	0.01522642	0.00881197	0.00807644	0.01730812	-0.00347168	-0.00763010	0.00288849	0.00865806	0.00027796	-0.00411352	0.01255853	0.00133992
7	0.06000000	-0.00056954	-0.01728283	0.00203606	0.00194556	-0.00349958	-0.00159365	0.02836045	0.00136276	-0.01651783	0.00940643	0.01128875	0.00796901	0.01978894	0.01230279	0.01280168	0.01793708	-0.00445945	-0.00786292	0.00326948	0.01164843	-0.00038527	-0.00507307	0.01419714	0.00072696
8	0.07000000	-0.00725883	-0.01759111	0.00127655	-0.00396228	-0.00596376	-0.00274961	0.03309401	0.00133734	-0.01508197	0.01871095	0.01014676	0.00492550	0.02165105	0.01262644	0.01384794	0.01461270	-0.00850521	-0.00962286	0.00384488	0.01007574	0.00198262	-0.00377878	0.01533568	0.00219867
9	0.08000000	-0.00475251	-0.01741034	-0.00292639	-0.00573570	-0.01141332	-0.00295505	0.02966279	0.00118454	-0.01582952	0.01985118	0.00929422	0.00797239	0.02338087	0.00987126	0.01303457	0.01551673	-0.00434000	-0.00978717	0.00444306	0.01342113	-0.00208475	-0.00537930	0.01495111	-0.00260055
10	0.09000000	-0.00145058	-0.01732100	-0.00186699	0.00056241	-0.01611495	-0.00262266	0.02214865	-0.00309947	-0.01404991	0.02294964	0.00539231	0.01039803	0.02039581	0.01136776	0.01653493	0.01591720	-0.00441706	-0.01155998	0.00115956	0.01438887	-0.00413258	-0.00259898	0.01673252	0.00031532
11	0.10000000	0.00005180	-0.02072846	0.00145283	0.00273933	-0.01843337	-0.00428207	-0.00184819	-0.00464915	-0.01918510	0.02429935	0.00416899	0.00573783	0.01470727	0.01370011	0.01424383	0.01661647	-0.00568601	-0.00874215	0.00326622	0.01366128	-0.00101238	-0.00387298	0.01358890	0.00047287
12	0.11000000	0.00199669	-0.02181747	-0.00308120	0.00915323	-0.01903753	-0.00538926	-0.02051203	-0.00540205	-0.01968229	0.02297580	0.00647650	0.00605413	0.00823717	0.01347190	0.01455989	0.01651004	-0.00876546	-0.00851646	0.00261927	0.01324510	-0.00142411	-0.00406690	0.01534938	-0.00043494
13	0.12000000	0.00446307	-0.01981555	-0.00361700	0.01006406	-0.02050968	-0.00547092	-0.02331824	-0.00682026	-0.01602595	0.01811611	0.00773946	0.00768405	0.00614690	0.01470719	0.01306864	0.01215530	-0.00805867	-0.00778700	0.00279455	0.01190884	-0.00092247	-0.00704795	0.01555011	-0.00043817
14	0.13000000	0.00590778	-0.01761243	-0.00558073	0.00630204	-0.01896814	-0.00480495	-0.01588728	-0.00825002	-0.01525835	0.01259025	0.00838692	0.00448031	0.00632529	0.01411685	0.01238581	0.00711539	-0.00880970	-0.00566982	0.00176075	0.01309291	-0.00092046	-0.00496434	0.01352980	-0.00158487
15	0.14000000	0.00359208	-0.02072233	-0.00425612	-0.00013387	-0.01783434	-0.00513467	-0.00842474	-0.00590226	-0.01943076	0.01186188	0.01032061	0.00542222	0.00601888	0.00805882	0.01477834	-0.00474547	-0.00927296	-0.00719633	0.00187523	0.00986699	-0.00140876	-0.00285658	0.01613536	-0.00261866
16	0.15000000	0.00397275	-0.02019470	0.00521621	-0.00344225	-0.01618292	-0.00527433	-0.00257034	-0.00176656	-0.01556894	0.00770534	0.00757707	0.01180385	0.01094038	0.00816454	0.01385313	-0.01568810	-0.00436945	-0.00244884	0.00187992	0.00851130	-0.00314857	-0.00677020	0.01691314	0.00108633
17	0.16000000	0.00541396	-0.01984198	0.00840143	-0.00334328	-0.01750945	-0.00632066	0.00410777	0.00080573	-0.00956634	0.00287130	0.00681071	0.00615478	0.00931949	0.01126592	0.01085702	-0.02383827	-0.00607827	-0.00180690	-0.00159560	0.01252452	-0.00013756	-0.00061932	0.01454507	0.00165564
18	0.17000000	0.00259749	-0.01953702	0.01048699	-0.00610364	-0.01786277	-0.00397055	0.00915836	0.00019333	-0.00563849	0.00129074	0.00968597	0.00576339	0.00923039	0.01383910	0.01377610	-0.02813809	-0.00622251	-0.00553730	0.00122532	0.01150405	0.00263099	-0.00510705	0.01446679	-0.00207524
19	0.18000000	0.00008238	-0.01964284	0.00886748	-0.00130313	-0.01389512	-0.00293982	0.00374770	-0.00279528	-0.01174275	0.00005368	0.00785192	0.00446990	0.01201121	0.00680235	0.01074905	-0.02535600	-0.00691296	-0.00487440	0.00128860	0.01204693	-0.00008383	-0.00267821	0.01536531	0.00068408
20	0.19000000	-0.00268811	-0.02141097	0.00170119	-0.00052636	-0.01119274	-0.00424784	-0.00509502	-0.00099981	-0.01949379	0.00190906	0.00764999	0.00291930	0.01294765	0.00836827	0.01105177	-0.01962224	-0.00866148	-0.00265842	-0.00001538	0.00957294	-0.00003410	-0.00284847	0.01755468	-0.00008886
21	0.20000000	-0.00411089	-0.01960869	0.00046663	-0.00042058	-0.00874972	-0.00422845	-0.00796849	0.00001778	-0.01485014	0.00581391	0.00703159	0.00315928	0.01052862	0.01180259	0.01078556	-0.01305592	-0.00824617	-0.00216867	0.00089506	0.00911974	0.00038758	-0.00218584	0.01451976	0.00076995
22	0.21000000	-0.00437118	-0.01675867	0.00175109	-0.00037296	-0.00895917	-0.00293395	-0.00571232	0.00543945	-0.00836542	0.00518531	0.00593731	0.00532596	0.00531906	0.01266060	0.01080470	-0.00689284	-0.00717979	-0.00151611	-0.00040011	0.00890421	-0.00039109	-0.00460071	0.01320806	-0.00283537
23	0.22000000	-0.00363690	-0.01914162	0.00010704	-0.00341704	-0.01045051	-0.00407724	-0.00137246	0.00497385	-0.00829634	0.00176820	0.00883042	0.00654943	0.00207357	0.01056761	0.01098696	0.00159139	-0.00921940	-0.00393146	0.00211776	0.01218274	-0.00220954	-0.00595142	0.01591260	-0.00236669
24	0.23000000	0.00149964	-0.01904275	0.00291954	-0.00630496	-0.00679130	-0.00678650	0.00349626	0.00163487	-0.01085726	0.00261545	0.00989269	0.00495636	0.00492117	0.01011893	0.01104184	0.00584017	-0.00895130	-0.00503520	0.00191736	0.01361163	-0.00068299	-0.00507325	0.01542397	-0.00154818
25	0.24000000	0.00574596	-0.02009119	-0.00080406	-0.00524889	-0.00717037	-0.00437071	0.00932119	0.00440062	-0.01604507	0.00441347	0.00937735	0.00516864	0.00444571	0.01005560	0.00872637	0.00810522	-0.00335545	-0.00368623	0.00189215	0.01361970	0.00107663	-0.00250512	0.01611529	-0.00046016
26	0.25000000	0.00670396	-0.01750294	0.00264037	-0.00099029	-0.00741705	-0.00501706	0.01108652	0.00078073	-0.01454693	0.00184558	0.01200367	0.00674791	0.00345007	0.00929969	0.01190554	0.01009045	-0.00651252	-0.00608816	0.00034950	0.01493271	0.00150041	-0.00297652	0.01720195	0.00008745
27	0.26000000	0.01169660	-0.02163051	0.00210197	0.00107397	-0.00786729	-0.00560459	0.01182372	0.00108211	-0.01090707	0.00363980	0.01197647	0.00702771	0.00822557	0.00954376	0.01154775	0.00829362	-0.01066821	-0.00509991	0.00151621	0.01328701	0.00300091	-0.00291254	0.01426393	-0.00175584
